<svg width="32" height="32" viewBox="0 0 32 32" fill="none" xmlns="http://www.w3.org/2000/svg">
<g clip-path="url(#clip0_21_12)">
<path d="M31.444 29.5205L20.7664 21.6031C21.8164 19.9062 22.423 17.9102 22.423 15.7758C22.423 14.4399 22.1876 13.1328 21.7233 11.8906C21.4574 11.1793 20.6651 10.8181 19.9539 11.0841C19.2426 11.3499 18.8815 12.1421 19.1474 12.8534C19.4961 13.7866 19.673 14.7699 19.673 15.7758C19.673 20.408 15.8772 24.1766 11.2115 24.1766C6.54581 24.1766 2.75 20.408 2.75 15.7758C2.75 11.1436 6.54581 7.375 11.2115 7.375C12.5029 7.375 13.7418 7.65588 14.8939 8.20975C15.5784 8.53881 16.3999 8.25069 16.7289 7.56637C17.058 6.882 16.7699 6.06044 16.0856 5.73138C14.5586 4.99725 12.9188 4.625 11.2115 4.625C5.02944 4.625 0 9.62725 0 15.7758C0 21.9244 5.02944 26.9266 11.2115 26.9266C14.2556 26.9266 17.0196 25.7132 19.0419 23.7479L29.8061 31.7295C30.0523 31.9121 30.3393 32.0001 30.6239 32.0001C31.0445 32.0001 31.4597 31.8078 31.7295 31.444C32.1818 30.834 32.0539 29.9728 31.444 29.5205V29.5205Z" fill="#717579"/>
<path d="M18.9393 10.3685C19.6987 10.3685 20.3143 9.75291 20.3143 8.99353C20.3143 8.23414 19.6987 7.61853 18.9393 7.61853C18.1799 7.61853 17.5643 8.23414 17.5643 8.99353C17.5643 9.75291 18.1799 10.3685 18.9393 10.3685Z" fill="#717579"/>
</g>
<defs>
<clipPath id="clip0_21_12">
<rect width="32" height="32" fill="white"/>
</clipPath>
</defs>
</svg>
