<svg width="32" height="32" viewBox="0 0 32 32" fill="none" xmlns="http://www.w3.org/2000/svg">
<g clip-path="url(#clip0_0_200)">
<path d="M32 12.7087C32 12.6285 31.9928 12.5501 31.9796 12.4736C31.6646 7.57756 27.6102 3.67738 22.6341 3.57681V1.375C22.6341 0.615625 22.0184 0 21.2591 0C20.4997 0 19.8841 0.615625 19.8841 1.375V3.57431H11.6726V1.375C11.6726 0.615625 11.0569 0 10.2976 0C9.53819 0 8.92256 0.615625 8.92256 1.375V3.59612C3.94706 3.92506 0 8.05588 0 13.0872V21.4244C0 27.2558 4.76956 32 10.6322 32H20.9373C21.6967 32 22.3123 31.3844 22.3123 30.625C22.3123 29.8656 21.6967 29.25 20.9373 29.25H10.6322C6.28594 29.25 2.75 25.7394 2.75 21.4244V14.0837H29.25V20.9966C29.25 22.1813 29.003 23.3243 28.5158 24.3937C28.0444 25.4284 27.3739 26.342 26.5229 27.1092C25.9589 27.6177 25.9138 28.4871 26.4223 29.0511C26.9309 29.6151 27.8002 29.6601 28.3642 29.1518C29.4969 28.1306 30.3898 26.9134 31.0184 25.5336C31.6698 24.1039 32 22.5774 32 20.9966V13.0872C32 12.9952 31.9984 12.9036 31.9958 12.8122C31.9983 12.778 32 12.7436 32 12.7087ZM8.92988 6.35375C9.001 7.04638 9.58619 7.58663 10.2976 7.58663C11.019 7.58663 11.6102 7.03094 11.6676 6.32431H19.889C19.9464 7.03094 20.5376 7.58663 21.259 7.58663C21.9794 7.58663 22.5701 7.03244 22.6288 6.32713C25.6904 6.41156 28.2531 8.51081 29.0173 11.3337H2.98269C3.70981 8.64756 6.0655 6.61706 8.92988 6.35375Z" fill="#717579"/>
<path d="M24.7114 31.81C25.4708 31.81 26.0864 31.1944 26.0864 30.435C26.0864 29.6756 25.4708 29.06 24.7114 29.06C23.952 29.06 23.3364 29.6756 23.3364 30.435C23.3364 31.1944 23.952 31.81 24.7114 31.81Z" fill="#717579"/>
</g>
<defs>
<clipPath id="clip0_0_200">
<rect width="32" height="32" fill="white"/>
</clipPath>
</defs>
</svg>
