<svg width="32" height="32" viewBox="0 0 32 32" fill="none" xmlns="http://www.w3.org/2000/svg">
<g clip-path="url(#clip0_0_186)">
<path d="M28.0948 25.0879H26.6026V11.3407C26.6026 10.7074 26.5332 10.0741 26.3964 9.45825C26.2318 8.717 25.4985 8.24975 24.7571 8.41431C24.0164 8.57912 23.5494 9.31363 23.7141 10.0549C23.8057 10.4676 23.8547 10.9115 23.8547 11.3407V25.0879L8.08362 25.088V11.4309C8.08362 8.38875 10.6582 5.62356 13.8227 5.26694C13.8272 5.26644 13.8317 5.26562 13.8362 5.26506C14.5092 5.18325 15.0368 4.59319 15.0426 3.914C15.0427 3.9095 15.0429 3.90506 15.0429 3.90056C15.0429 3.26619 15.5576 2.75 16.1902 2.75C16.8227 2.75 17.3374 3.26612 17.3374 3.90069C17.3374 4.55975 17.8577 5.16475 18.5102 5.26069C19.2389 5.36862 19.94 5.60462 20.594 5.96219C20.8032 6.07656 21.0289 6.13081 21.2515 6.13081C21.7377 6.13081 22.2089 5.87188 22.4584 5.41475C22.8222 4.74831 22.5773 3.91294 21.9114 3.54888C21.2738 3.20025 20.6042 2.93225 19.9114 2.74719C19.4191 1.15775 17.9371 0 16.1902 0C14.4558 0 12.9832 1.14125 12.4802 2.71294C10.7098 3.1255 9.07119 4.06819 7.78544 5.42975C6.20569 7.10281 5.33569 9.23406 5.33569 11.4309V25.0881H3.90525C3.14644 25.0881 2.53131 25.7037 2.53131 26.4631C2.53131 27.2224 3.14644 27.8381 3.90525 27.8381H11.5226C11.6947 30.1617 13.6364 32 16 32C18.3636 32 20.3053 30.1616 20.4775 27.838H28.0948C28.8536 27.838 29.4687 27.2224 29.4687 26.463C29.4687 25.7036 28.8536 25.0879 28.0948 25.0879ZM16 29.25C15.1532 29.25 14.4458 28.6416 14.2892 27.838H17.7108C17.5542 28.6416 16.8467 29.25 16 29.25Z" fill="#717579"/>
<path d="M23.8691 8.18592C24.6279 8.18592 25.243 7.57031 25.243 6.81092C25.243 6.05152 24.6279 5.43591 23.8691 5.43591C23.1103 5.43591 22.4951 6.05152 22.4951 6.81092C22.4951 7.57031 23.1103 8.18592 23.8691 8.18592Z" fill="#717579"/>
</g>
<defs>
<clipPath id="clip0_0_186">
<rect width="32" height="32" fill="white"/>
</clipPath>
</defs>
</svg>
