<svg width="32" height="32" viewBox="0 0 32 32" fill="none" xmlns="http://www.w3.org/2000/svg">
<g clip-path="url(#clip0_0_193)">
<path d="M20.4632 3.4715H11.5369C5.17544 3.4715 0 8.63718 0 14.9867V20.4849C0 26.8344 5.17544 32.0001 11.5369 32.0001H20.5686C21.328 32.0001 21.9436 31.3844 21.9436 30.6251C21.9436 29.8657 21.328 29.2501 20.5686 29.2501H11.5369C6.69181 29.2501 2.75 25.318 2.75 20.4849V14.9867C2.75 13.2669 3.2495 11.6614 4.11081 10.3064L12.4198 17.0756L12.4315 17.085C13.4248 17.8762 14.7284 18.3115 16.1044 18.3115H16.1214C17.4992 18.3079 18.8024 17.8682 19.7926 17.0732L28.0844 10.6274C28.8258 11.9121 29.2501 13.4007 29.2501 14.9865V20.958C29.2501 22.1491 29.0027 23.2979 28.515 24.3729C28.0432 25.4126 27.3724 26.3305 26.5209 27.1011C25.9579 27.6106 25.9146 28.4801 26.4241 29.0432C26.9337 29.6063 27.8032 29.6496 28.3662 29.14C29.4984 28.1153 30.391 26.8937 31.0193 25.5091C31.6701 24.0749 32 22.5437 32 20.9581V14.9866C32 8.63712 26.8246 3.4715 20.4632 3.4715ZM18.0956 14.9092L18.0758 14.9249C17.0344 15.7656 15.2018 15.7711 14.1501 14.9381L5.93113 8.24218C7.4535 6.98087 9.40794 6.2215 11.5369 6.2215H20.4632C22.7278 6.2215 24.7949 7.08062 26.3545 8.48912L18.0956 14.9092Z" fill="#717579"/>
<path d="M24.5181 31.8096C25.2775 31.8096 25.8931 31.194 25.8931 30.4346C25.8931 29.6752 25.2775 29.0596 24.5181 29.0596C23.7587 29.0596 23.1431 29.6752 23.1431 30.4346C23.1431 31.194 23.7587 31.8096 24.5181 31.8096Z" fill="#717579"/>
</g>
<defs>
<clipPath id="clip0_0_193">
<rect width="32" height="32" fill="white"/>
</clipPath>
</defs>
</svg>
