<svg width="32" height="32" viewBox="0 0 32 32" fill="none" xmlns="http://www.w3.org/2000/svg">
<g clip-path="url(#clip0_0_171)">
<path d="M14.7653 21.5344V19.0166H12.2589C11.4996 19.0166 10.8839 18.401 10.8839 17.6416C10.8839 16.8822 11.4996 16.2666 12.2589 16.2666H14.7653V13.7488C14.7653 12.9894 15.3809 12.3738 16.1402 12.3738C16.8996 12.3738 17.5152 12.9894 17.5152 13.7488V16.2666H20.0216C20.7809 16.2666 21.3966 16.8822 21.3966 17.6416C21.3966 18.401 20.7809 19.0166 20.0216 19.0166H17.5152V21.5344C17.5152 22.2938 16.8996 22.9094 16.1402 22.9094C15.3809 22.9094 14.7653 22.2938 14.7653 21.5344ZM28.6875 9.68933V23.8026C28.6875 24.9601 28.4513 26.0796 27.9854 27.1301C27.7578 27.6431 27.2549 27.9481 26.7277 27.9481C26.5414 27.9481 26.3522 27.91 26.171 27.8296C25.4768 27.5217 25.1636 26.7094 25.4715 26.0153C25.7808 25.318 25.9376 24.5736 25.9376 23.8026V11.3508H22.1869C19.6176 11.3508 17.5273 9.25415 17.5273 6.67702V2.74996H11.4897C8.49713 2.74996 6.0625 5.19365 6.0625 8.19733V23.8026C6.0625 26.8063 8.49713 29.25 11.4897 29.25H21.0709C21.8302 29.25 22.4459 29.8656 22.4459 30.625C22.4459 31.3843 21.8302 32 21.0709 32H11.4897C6.98075 32 3.3125 28.3226 3.3125 23.8026V8.19733C3.3125 3.67727 6.98075 -4.2993e-05 11.4897 -4.2993e-05H19.1546C19.1576 -0.000105493 19.1606 1.95071e-05 19.1635 -4.2993e-05H19.1767C19.2006 -4.2993e-05 19.2244 0.000582007 19.2481 0.00176951C19.6602 0.0183945 20.0594 0.18927 20.3614 0.49852L28.2162 8.54127C28.4867 8.81808 28.6444 9.17202 28.6794 9.54046C28.6823 9.56746 28.6845 9.59471 28.6858 9.62215C28.686 9.62683 28.686 9.63152 28.6862 9.63621C28.6868 9.65383 28.6875 9.67152 28.6875 9.68933ZM24.4304 8.60077L20.2773 4.34821V6.67702C20.2773 7.73777 21.1339 8.60077 22.1869 8.60077H24.4304Z" fill="#5A45AA"/>
<path d="M25.3901 31.584C26.1495 31.584 26.7651 30.9684 26.7651 30.209C26.7651 29.4496 26.1495 28.834 25.3901 28.834C24.6307 28.834 24.0151 29.4496 24.0151 30.209C24.0151 30.9684 24.6307 31.584 25.3901 31.584Z" fill="#5A45AA"/>
</g>
<defs>
<clipPath id="clip0_0_171">
<rect width="32" height="32" fill="white"/>
</clipPath>
</defs>
</svg>
