<svg width="32" height="32" viewBox="0 0 32 32" fill="none" xmlns="http://www.w3.org/2000/svg">
<g clip-path="url(#clip0_0_163)">
<path d="M13.29 29.2382C12.7633 29.2307 12.261 29.0154 11.8923 28.6391L0.590504 17.3573C-0.192449 16.5807 -0.197644 15.3164 0.578931 14.5334C0.582745 14.5295 0.586625 14.5257 0.590504 14.5218L11.8923 3.24007C12.7299 2.52274 13.9905 2.62026 14.7078 3.45792C15.348 4.2055 15.348 5.30802 14.7078 6.05553L4.82372 15.9396L14.8076 25.8237C15.5818 26.6025 15.5818 27.8603 14.8076 28.6391C14.4101 29.0458 13.8582 29.2637 13.29 29.2382Z" fill="#717579"/>
<path d="M30.0032 17.9364H2.04832C0.945528 17.9364 0.0515137 17.0424 0.0515137 15.9396C0.0515137 14.8368 0.945528 13.9428 2.04832 13.9428H30.0032C31.106 13.9428 32 14.8368 32 15.9396C32 17.0424 31.106 17.9364 30.0032 17.9364Z" fill="#717579"/>
</g>
<defs>
<clipPath id="clip0_0_163">
<rect width="32" height="32" fill="white"/>
</clipPath>
</defs>
</svg>
