<svg width="54" height="54" viewBox="0 0 54 54" fill="none" xmlns="http://www.w3.org/2000/svg">
<rect width="54" height="54" rx="14" fill="#F3F0FF"/>
<path d="M31.5 21V16.9725L35.595 21.75H32.25C32.0511 21.75 31.8603 21.671 31.7197 21.5303C31.579 21.3897 31.5 21.1989 31.5 21ZM32.25 23.25C31.6533 23.25 31.081 23.0129 30.659 22.591C30.2371 22.169 30 21.5967 30 21V16.5H20.25C19.6533 16.5 19.081 16.7371 18.659 17.159C18.2371 17.581 18 18.1533 18 18.75V35.25C18 35.8467 18.2371 36.419 18.659 36.841C19.081 37.2629 19.6533 37.5 20.25 37.5H33.75C34.3467 37.5 34.919 37.2629 35.341 36.841C35.7629 36.419 36 35.8467 36 35.25V23.25H32.25Z" fill="#5A45AA"/>
</svg>
