<svg width="32" height="32" viewBox="0 0 32 32" fill="none" xmlns="http://www.w3.org/2000/svg">
<g clip-path="url(#clip0_0_241)">
<path d="M23.9114 8.375H8.08856C3.6285 8.375 0 11.9565 0 16.3587V24.0163C0 28.4185 3.6285 32 8.08856 32H23.9114C24.6708 32 25.2864 31.3844 25.2864 30.625C25.2864 29.8656 24.6708 29.25 23.9114 29.25H8.08856C5.14488 29.25 2.75 26.9022 2.75 24.0163V17.369H29.25V24.0163C29.25 24.8706 29.0471 25.6846 28.6469 26.4356C28.2898 27.1057 28.5436 27.9386 29.2137 28.2957C29.884 28.653 30.7167 28.399 31.0738 27.7289C31.6798 26.5919 32 25.3081 32 24.0163V16.3587C32 11.9565 28.3714 8.375 23.9114 8.375ZM8.08856 11.125H23.9114C26.2331 11.125 28.2124 12.586 28.9456 14.6191H3.05437C3.78762 12.586 5.76681 11.125 8.08856 11.125ZM6.15819 22.6857C6.91756 22.6857 7.53319 23.3013 7.53319 24.0607C7.53319 24.8201 6.91756 25.4357 6.15819 25.4357C5.39881 25.4357 4.78319 24.8201 4.78319 24.0607C4.78319 23.3013 5.39881 22.6857 6.15819 22.6857ZM9.46138 22.6857C10.2207 22.6857 10.8364 23.3013 10.8364 24.0607C10.8364 24.8201 10.2207 25.4357 9.46138 25.4357C8.702 25.4357 8.08638 24.8201 8.08638 24.0607C8.08638 23.3013 8.702 22.6857 9.46138 22.6857ZM12.7646 22.6857C13.5239 22.6857 14.1396 23.3013 14.1396 24.0607C14.1396 24.8201 13.5239 25.4357 12.7646 25.4357C12.0052 25.4357 11.3896 24.8201 11.3896 24.0607C11.3896 23.3013 12.0052 22.6857 12.7646 22.6857ZM16.0678 22.6857C16.8271 22.6857 17.4428 23.3013 17.4428 24.0607C17.4428 24.8201 16.8271 25.4357 16.0678 25.4357C15.3084 25.4357 14.6927 24.8201 14.6927 24.0607C14.6927 23.3013 15.3084 22.6857 16.0678 22.6857Z" fill="#717579"/>
<path d="M27.7832 31.5608C28.5426 31.5608 29.1582 30.9452 29.1582 30.1858C29.1582 29.4264 28.5426 28.8108 27.7832 28.8108C27.0238 28.8108 26.4082 29.4264 26.4082 30.1858C26.4082 30.9452 27.0238 31.5608 27.7832 31.5608Z" fill="#717579"/>
</g>
<defs>
<clipPath id="clip0_0_241">
<rect width="32" height="32" fill="white"/>
</clipPath>
</defs>
</svg>
