<svg width="32" height="32" viewBox="0 0 32 32" fill="none" xmlns="http://www.w3.org/2000/svg">
<path fill-rule="evenodd" clip-rule="evenodd" d="M11.8744 25.7601L7.46645 29.0667C7.06245 29.3694 6.52245 29.4187 6.07045 29.1921C5.61845 28.9667 5.33311 28.5054 5.33311 28.0001V4.00005C5.33311 3.26405 5.93045 2.66672 6.66645 2.66672H25.3331C26.0691 2.66672 26.6664 3.26405 26.6664 4.00005V28.0001C26.6664 28.5054 26.3811 28.9667 25.9291 29.1921C25.4771 29.4187 24.9371 29.3694 24.5331 29.0667L20.1251 25.7601L16.9424 28.9427C16.4224 29.4641 15.5771 29.4641 15.0571 28.9427L11.8744 25.7601ZM23.9998 25.3334V5.33338H7.99978V25.3334L11.1998 22.9334C11.7304 22.5347 12.4731 22.5881 12.9424 23.0574L15.9998 26.1147L19.0571 23.0574C19.5264 22.5881 20.2691 22.5347 20.7998 22.9334L23.9998 25.3334ZM14.6664 16.0001H17.3331C18.0691 16.0001 18.6664 15.4027 18.6664 14.6667C18.6664 13.9307 18.0691 13.3334 17.3331 13.3334H14.6664C13.9304 13.3334 13.3331 13.9307 13.3331 14.6667C13.3331 15.4027 13.9304 16.0001 14.6664 16.0001ZM11.9998 10.6667H19.9998C20.7358 10.6667 21.3331 10.0694 21.3331 9.33338C21.3331 8.59738 20.7358 8.00005 19.9998 8.00005H11.9998C11.2638 8.00005 10.6664 8.59738 10.6664 9.33338C10.6664 10.0694 11.2638 10.6667 11.9998 10.6667Z" fill="#717579"/>
</svg>
