<svg width="24" height="24" viewBox="0 0 24 24" fill="none" xmlns="http://www.w3.org/2000/svg">
<path d="M10 12C10 13.1045 10.8954 13.9999 12 13.9999C13.1046 13.9999 14 13.1045 14 12C14 10.8954 13.1046 9.99995 12 9.99995C10.8954 9.99995 10 10.8954 10 12Z" fill="#171B1E"/>
<path d="M10 4.00003C10 5.1046 10.8954 6.00003 12 6.00003C13.1046 6.00003 14 5.1046 14 4.00003C14 2.89546 13.1046 2.00003 12 2.00003C10.8954 2.00003 10 2.89546 10 4.00003Z" fill="#171B1E"/>
<path d="M10 20C10 21.1046 10.8954 22 12 22C13.1046 22 14 21.1046 14 20C14 18.8954 13.1046 18 12 18C10.8954 18 10 18.8954 10 20Z" fill="#171B1E"/>
</svg>
