<svg width="32" height="32" viewBox="0 0 32 32" fill="none" xmlns="http://www.w3.org/2000/svg">
<path d="M24.5718 6.25052H7.42819C3.33225 6.25052 0 9.58458 0 13.6828V24.5671C0 28.6653 3.33225 31.9994 7.42819 31.9994H24.5718C25.3312 31.9994 25.9468 31.3838 25.9468 30.6244C25.9468 29.865 25.3312 29.2494 24.5718 29.2494H7.42819C4.84863 29.2494 2.75 27.149 2.75 24.5671V13.6828C2.75 11.101 4.84863 9.00052 7.42819 9.00052H24.5718C27.1513 9.00052 29.25 11.101 29.25 13.6828V14.9339C29.1851 14.9245 29.1189 14.9195 29.0514 14.9195H22.3609C21.2337 14.9195 20.1592 15.5016 19.4129 16.5167C18.749 17.4196 18.3834 18.5978 18.3834 19.8341C18.3834 21.0705 18.749 22.2486 19.4129 23.1516C20.1592 24.1666 21.2337 24.7488 22.3609 24.7488H29.0514C29.1176 24.7488 29.1826 24.7439 29.2462 24.7348C29.228 25.257 29.1254 25.766 28.9391 26.2501C28.6663 26.9588 29.0197 27.7545 29.7284 28.0273C30.4371 28.3003 31.2327 27.9468 31.5056 27.2381C31.8336 26.3858 32 25.4872 32 24.5673V13.6829C32 9.58458 28.6677 6.25052 24.5718 6.25052ZM22.3609 21.9987C21.7815 21.9987 21.1334 21.073 21.1334 19.834C21.1334 18.5951 21.7814 17.6693 22.3609 17.6693H29.0514C29.1189 17.6693 29.1851 17.6643 29.25 17.6549V22.0131C29.1851 22.0038 29.1189 21.9987 29.0514 21.9987H22.3609Z" fill="#717579"/>
<path d="M28.5924 31.7352C29.3518 31.7352 29.9674 31.1196 29.9674 30.3602C29.9674 29.6008 29.3518 28.9852 28.5924 28.9852C27.833 28.9852 27.2174 29.6008 27.2174 30.3602C27.2174 31.1196 27.833 31.7352 28.5924 31.7352Z" fill="#717579"/>
</svg>
