<svg width="50" height="50" viewBox="0 0 50 50" fill="none" xmlns="http://www.w3.org/2000/svg">
<circle cx="25" cy="25" r="25" fill="#F3F0FF"/>
<path d="M25.0047 13H24.9953C19.9319 13 15.8125 17.1194 15.8125 22.1828C15.8125 24.1502 16.4609 26.1017 17.6381 27.6778L24.6007 37H25.3993L32.3619 27.6779C33.5391 26.1017 34.1875 24.1502 34.1875 22.1828C34.1875 17.1194 30.0681 13 25.0047 13ZM25 24.7656C23.4492 24.7656 22.1875 23.5039 22.1875 21.9531C22.1875 20.4023 23.4492 19.1406 25 19.1406C26.5508 19.1406 27.8125 20.4023 27.8125 21.9531C27.8125 23.5039 26.5508 24.7656 25 24.7656Z" fill="#5A45AA"/>
</svg>
