<svg width="50" height="50" viewBox="0 0 50 50" fill="none" xmlns="http://www.w3.org/2000/svg">
<circle cx="25" cy="25" r="25" fill="#F3F0FF"/>
<path d="M25 24.8608L34.7568 19.5389C34.4465 18.5179 33.8171 17.6233 32.9609 16.9864C32.1048 16.3495 31.067 16.0038 30 16H20C18.9329 16.0038 17.8951 16.3495 17.039 16.9864C16.1829 17.6233 15.5535 18.5179 15.2432 19.5389L25 24.8608Z" fill="#5A45AA"/>
<path d="M25.4792 26.8779C25.3322 26.958 25.1675 27 25.0002 27C24.8328 27 24.6681 26.958 24.5212 26.8779L15.0002 21.6846V29C15.0017 30.3256 15.529 31.5965 16.4664 32.5338C17.4037 33.4712 18.6746 33.9984 20.0002 34H30.0002C31.3258 33.9984 32.5967 33.4712 33.534 32.5338C34.4713 31.5965 34.9986 30.3256 35.0002 29V21.6846L25.4792 26.8779Z" fill="#5A45AA"/>
</svg>
