<svg width="25" height="24" viewBox="0 0 25 24" fill="none" xmlns="http://www.w3.org/2000/svg">
<g clip-path="url(#clip0_26_6)">
<path d="M24.1104 9.53156C24.1104 9.47137 24.1049 9.41255 24.095 9.35517C23.8588 5.68317 20.818 2.75803 17.0859 2.68261V1.03125C17.0859 0.461719 16.6242 0 16.0546 0C15.4851 0 15.0234 0.461719 15.0234 1.03125V2.68073H8.86477V1.03125C8.86477 0.461719 8.40306 0 7.83352 0C7.26399 0 6.80227 0.461719 6.80227 1.03125V2.69709C3.07065 2.9438 0.110352 6.04191 0.110352 9.81539V16.0683C0.110352 20.4419 3.68752 24 8.08449 24H15.8133C16.3829 24 16.8446 23.5383 16.8446 22.9688C16.8446 22.3992 16.3829 21.9375 15.8133 21.9375H8.08449C4.8248 21.9375 2.17285 19.3046 2.17285 16.0683V10.5628H22.0479V15.7474C22.0479 16.636 21.8626 17.4932 21.4972 18.2953C21.1437 19.0713 20.6408 19.7565 20.0025 20.3319C19.5795 20.7133 19.5457 21.3653 19.927 21.7883C20.3085 22.2113 20.9605 22.2451 21.3835 21.8638C22.233 21.098 22.9027 20.185 23.3741 19.1502C23.8627 18.078 24.1104 16.933 24.1104 15.7474V9.81539C24.1104 9.74639 24.1091 9.67767 24.1072 9.60914C24.109 9.5835 24.1104 9.55767 24.1104 9.53156ZM6.80776 4.76531C6.8611 5.28478 7.29999 5.68997 7.83352 5.68997C8.3746 5.68997 8.81804 5.2732 8.86102 4.74323H15.0271C15.0701 5.2732 15.5136 5.68997 16.0546 5.68997C16.5949 5.68997 17.0379 5.27433 17.082 4.74534C19.3781 4.80867 21.3002 6.38311 21.8733 8.50031H2.34737C2.89271 6.48567 4.65948 4.9628 6.80776 4.76531Z" fill="#5A45AA"/>
<path d="M18.6439 23.8575C19.2134 23.8575 19.6752 23.3958 19.6752 22.8262C19.6752 22.2567 19.2134 21.795 18.6439 21.795C18.0744 21.795 17.6127 22.2567 17.6127 22.8262C17.6127 23.3958 18.0744 23.8575 18.6439 23.8575Z" fill="#5A45AA"/>
</g>
<defs>
<clipPath id="clip0_26_6">
<rect width="24" height="24" fill="white" transform="translate(0.110352)"/>
</clipPath>
</defs>
</svg>
