<svg width="50" height="50" viewBox="0 0 50 50" fill="none" xmlns="http://www.w3.org/2000/svg">
<circle cx="25" cy="25" r="25" fill="#F3F0FF"/>
<path d="M32.5556 29.0041L30.1262 27.3067C29.8085 27.0851 29.4371 26.9683 29.0521 26.9683C28.4398 26.9683 27.865 27.2686 27.5149 27.7711L26.9509 28.5793C26.0057 27.9454 24.9511 27.0602 23.9456 26.055C22.9404 25.0497 22.0554 23.9951 21.4217 23.0499L22.2296 22.4859C22.6414 22.1992 22.9164 21.7696 23.0037 21.2767C23.0909 20.7841 22.981 20.2864 22.6939 19.8745L20.9969 17.445C20.642 16.9374 20.0695 16.6342 19.465 16.6342C19.2556 16.6342 19.0501 16.6712 18.8546 16.7433C18.6324 16.8254 18.4255 16.9261 18.2227 17.0535L17.8872 17.2897C17.8033 17.3549 17.7253 17.4263 17.6506 17.501C17.2414 17.9101 16.951 18.4279 16.7871 19.0402C16.0878 21.6616 17.8202 25.6254 21.0978 28.903C23.8502 31.6555 27.1569 33.3653 29.7272 33.3657H29.7274C30.1675 33.3657 30.5825 33.3144 30.9608 33.2133C31.5731 33.0496 32.0909 32.7592 32.5003 32.3498C32.5746 32.2755 32.6457 32.1974 32.7219 32.0989L32.9583 31.7617C33.0738 31.5771 33.1743 31.3702 33.2574 31.1464C33.5433 30.3737 33.2547 29.4926 32.5556 29.0041Z" fill="#5A45AA"/>
</svg>
