<svg width="54" height="54" viewBox="0 0 54 54" fill="none" xmlns="http://www.w3.org/2000/svg">
<rect width="54" height="54" rx="14" fill="#5A45AA"/>
<path d="M33.729 24.216C33.456 20.7428 30.5422 18 27 18C23.97 18 21.369 19.968 20.5297 22.8383C18.1358 23.6693 16.5 25.9373 16.5 28.5C16.5 31.8082 19.1918 34.5 22.5 34.5H32.25C35.145 34.5 37.5 32.145 37.5 29.25C37.5 26.8883 35.9475 24.861 33.729 24.216ZM30.693 26.5373C30.5767 26.817 30.303 27 30 27H28.5V30C28.5 30.828 27.828 31.5 27 31.5C26.172 31.5 25.5 30.828 25.5 30V27H24C23.697 27 23.4233 26.817 23.307 26.5373C23.1908 26.2568 23.2552 25.9343 23.4698 25.7198L26.4698 22.7198C26.616 22.5735 26.808 22.5 27 22.5C27.192 22.5 27.384 22.5735 27.5303 22.7198L30.5303 25.7198C30.7448 25.9343 30.8092 26.2568 30.693 26.5373Z" fill="white"/>
</svg>
